<?xml version="1.0" standalone="no"?>
<!DOCTYPE svg PUBLIC "-//W3C//DTD SVG 20010904//EN"
 "http://www.w3.org/TR/2001/REC-SVG-20010904/DTD/svg10.dtd">
<svg version="1.0" xmlns="http://www.w3.org/2000/svg"
 width="504.000000pt" height="504.000000pt" viewBox="0 0 504.000000 504.000000"
 preserveAspectRatio="xMidYMid meet">
<metadata>
Created by potrace 1.11, written by Peter Selinger 2001-2013
</metadata>
<g transform="translate(0.000000,504.000000) scale(0.100000,-0.100000)"
fill="#000000" stroke="none">
<path d="M3263 4038 c-6 -13 -82 -194 -168 -403 -86 -209 -163 -393 -170 -410
-7 -16 -37 -86 -65 -155 -29 -69 -54 -131 -57 -138 -4 -10 16 -12 92 -10 l97
3 35 90 c19 50 40 102 47 116 l11 25 191 1 190 0 12 -26 c6 -14 27 -68 47
-118 l37 -93 94 0 94 0 -19 48 c-23 58 -157 386 -176 427 -7 17 -70 170 -140
340 -71 171 -131 313 -135 318 -3 4 -11 -3 -17 -15z m78 -565 c32 -81 59 -151
59 -155 0 -5 -56 -8 -125 -8 -69 0 -125 3 -125 6 0 15 123 314 128 310 2 -3
31 -72 63 -153z"/>
<path d="M3900 3492 l0 -572 85 0 85 0 2 285 3 286 95 -143 c52 -79 127 -192
168 -251 l74 -108 169 253 169 253 0 -287 0 -288 85 0 85 0 0 573 0 572 -250
-375 c-137 -206 -254 -375 -260 -375 -5 0 -120 167 -256 370 -136 204 -248
372 -250 374 -2 2 -4 -253 -4 -567z"/>
<path d="M130 3466 l0 -547 175 1 c193 2 262 13 359 60 105 50 195 157 237
280 30 92 37 251 15 350 -43 188 -150 310 -326 371 -57 20 -90 23 -262 27
l-198 4 0 -546z m416 346 c137 -51 202 -154 209 -328 6 -129 -28 -228 -102
-299 -63 -61 -133 -86 -255 -92 l-98 -5 0 376 0 376 98 -4 c64 -3 115 -11 148
-24z"/>
<path d="M1120 3465 l0 -545 85 0 85 0 0 185 0 185 60 0 61 0 137 -185 137
-185 99 0 c77 0 96 3 89 13 -6 6 -71 94 -146 193 -98 133 -132 185 -124 193 6
6 16 11 22 11 18 0 84 59 114 104 43 62 60 133 58 234 -4 164 -82 275 -229
325 -36 12 -93 16 -247 17 l-201 1 0 -546z m428 363 c62 -31 93 -89 94 -180 1
-95 -40 -163 -117 -192 -11 -5 -68 -10 -127 -12 l-108 -4 0 204 c0 155 3 205
13 209 6 2 54 3 105 1 74 -2 102 -7 140 -26z"/>
<path d="M2020 3465 l0 -545 327 2 328 3 0 73 c1 43 -3 73 -10 73 -5 1 -113 2
-240 3 l-230 1 -3 164 c-1 100 1 167 7 171 6 3 96 5 201 5 l190 -1 0 78 0 78
-200 0 -201 0 3 142 3 143 240 0 239 0 1 78 1 77 -328 0 -328 0 0 -545z"/>
<path d="M130 1732 l0 -572 85 0 85 0 0 348 0 347 47 -50 c25 -27 60 -66 78
-85 17 -19 60 -66 95 -105 35 -38 82 -90 104 -115 58 -64 127 -141 227 -250
48 -52 96 -106 108 -120 l20 -25 1 573 0 572 -85 0 -85 0 0 -347 0 -348 -38
41 c-20 22 -73 81 -117 130 -44 49 -107 118 -140 154 -89 98 -130 143 -249
275 -60 66 -115 127 -122 135 -12 12 -14 -73 -14 -558z"/>
<path d="M2291 2259 c-132 -25 -223 -126 -222 -248 0 -103 22 -135 227 -336
178 -175 184 -182 184 -221 0 -32 -6 -46 -32 -71 -70 -67 -170 -64 -251 8
l-43 38 -68 -54 -67 -54 49 -48 c27 -26 75 -61 108 -78 53 -26 69 -29 154 -30
84 0 102 3 151 28 148 72 210 229 149 372 -20 47 -41 70 -293 314 -100 96
-116 134 -77 176 43 46 139 42 182 -8 18 -20 18 -20 55 7 21 15 53 39 70 54
33 28 33 28 13 49 -74 81 -189 121 -289 102z"/>
<path d="M1220 1705 l0 -545 328 0 327 0 0 75 c1 44 -4 76 -10 76 -5 1 -113 2
-240 3 l-230 1 -3 164 c-1 99 1 167 7 171 6 3 96 5 200 5 l191 -1 0 78 0 78
-200 0 -201 0 3 143 3 142 238 0 c130 0 238 2 238 5 1 3 2 38 3 78 l2 72 -328
0 -328 0 0 -545z"/>
<path d="M2739 2233 c-2 -48 0 -124 5 -131 2 -4 70 -8 150 -7 l146 1 0 -468 0
-468 85 0 85 0 0 464 c0 362 3 465 13 468 6 3 74 4 150 3 88 0 137 3 138 10 0
5 1 40 2 78 l2 67 -387 0 c-363 0 -388 -1 -389 -17z"/>
</g>
</svg>
